<svg width="16" height="16" viewBox="0 0 16 16" fill="none" xmlns="http://www.w3.org/2000/svg">
<path fill-rule="evenodd" clip-rule="evenodd" d="M12.9231 5.8133C13.1984 5.83596 13.4037 6.07663 13.3817 6.35196C13.3777 6.3973 13.0164 10.8713 12.8084 12.748C12.6791 13.9126 11.9097 14.6213 10.7484 14.6426C9.85973 14.658 9.0024 14.6666 8.1644 14.6666C7.26107 14.6666 6.3804 14.6566 5.50907 14.6386C4.3944 14.6166 3.62307 13.894 3.49707 12.7526C3.28707 10.8593 2.92773 6.39663 2.9244 6.35196C2.90173 6.07663 3.10707 5.8353 3.3824 5.8133C3.65373 5.80596 3.89907 5.99663 3.92107 6.2713C3.92319 6.30023 4.07009 8.12265 4.23017 9.92577L4.26233 10.2856C4.34295 11.1818 4.42468 12.0431 4.49107 12.6426C4.5624 13.2913 4.9124 13.626 5.52973 13.6386C7.1964 13.674 8.89707 13.676 10.7304 13.6426C11.3864 13.63 11.7411 13.302 11.8144 12.638C12.0211 10.7753 12.3811 6.31663 12.3851 6.2713C12.4071 5.99663 12.6504 5.80463 12.9231 5.8133ZM9.5636 1.3335C10.1756 1.3335 10.7136 1.74616 10.8716 2.3375L11.0409 3.17816C11.0957 3.45375 11.3375 3.655 11.6175 3.65942L13.8053 3.6595C14.0813 3.6595 14.3053 3.8835 14.3053 4.1595C14.3053 4.4355 14.0813 4.6595 13.8053 4.6595L11.6371 4.6594C11.6337 4.65946 11.6303 4.6595 11.6269 4.6595L11.6107 4.65883L4.69441 4.65941C4.68904 4.65947 4.68365 4.6595 4.67827 4.6595L4.668 4.65883L2.5 4.6595C2.224 4.6595 2 4.4355 2 4.1595C2 3.8835 2.224 3.6595 2.5 3.6595L4.68733 3.65883L4.75468 3.65457C5.00554 3.62202 5.21402 3.4315 5.26493 3.17816L5.42693 2.3675C5.5916 1.74616 6.1296 1.3335 6.7416 1.3335H9.5636ZM9.5636 2.3335H6.7416C6.5816 2.3335 6.44093 2.44083 6.40027 2.59483L6.24493 3.37483C6.22519 3.47363 6.19644 3.56884 6.15966 3.65967H10.1457C10.1089 3.56884 10.0801 3.47363 10.0603 3.37483L9.89827 2.56416C9.86427 2.44083 9.7236 2.3335 9.5636 2.3335Z" fill="#F52B2B"/>
</svg>
