<svg width="16" height="16" viewBox="0 0 16 16" fill="none" xmlns="http://www.w3.org/2000/svg">
<path fill-rule="evenodd" clip-rule="evenodd" d="M12.9231 5.81336C13.1984 5.83602 13.4037 6.07669 13.3817 6.35202C13.3777 6.39736 13.0164 10.8714 12.8084 12.748C12.6791 13.9127 11.9097 14.6214 10.7484 14.6427C9.85973 14.658 9.0024 14.6667 8.1644 14.6667C7.26107 14.6667 6.3804 14.6567 5.50907 14.6387C4.3944 14.6167 3.62307 13.894 3.49707 12.7527C3.28707 10.8594 2.92773 6.39669 2.9244 6.35202C2.90173 6.07669 3.10707 5.83536 3.3824 5.81336C3.65373 5.80602 3.89907 5.99669 3.92107 6.27136C3.92319 6.30029 4.07009 8.12271 4.23017 9.92583L4.26233 10.2857C4.34295 11.1819 4.42468 12.0431 4.49107 12.6427C4.5624 13.2914 4.9124 13.626 5.52973 13.6387C7.1964 13.674 8.89707 13.676 10.7304 13.6427C11.3864 13.63 11.7411 13.302 11.8144 12.638C12.0211 10.7754 12.3811 6.31669 12.3851 6.27136C12.4071 5.99669 12.6504 5.80469 12.9231 5.81336ZM9.5636 1.33356C10.1756 1.33356 10.7136 1.74622 10.8716 2.33756L11.0409 3.17822C11.0957 3.45381 11.3375 3.65506 11.6175 3.65948L13.8053 3.65956C14.0813 3.65956 14.3053 3.88356 14.3053 4.15956C14.3053 4.43556 14.0813 4.65956 13.8053 4.65956L11.6371 4.65946C11.6337 4.65952 11.6303 4.65956 11.6269 4.65956L11.6107 4.65889L4.69441 4.65948C4.68904 4.65953 4.68365 4.65956 4.67827 4.65956L4.668 4.65889L2.5 4.65956C2.224 4.65956 2 4.43556 2 4.15956C2 3.88356 2.224 3.65956 2.5 3.65956L4.68733 3.65889L4.75468 3.65463C5.00554 3.62208 5.21402 3.43156 5.26493 3.17822L5.42693 2.36756C5.5916 1.74622 6.1296 1.33356 6.7416 1.33356H9.5636ZM9.5636 2.33356H6.7416C6.5816 2.33356 6.44093 2.44089 6.40027 2.59489L6.24493 3.37489C6.22519 3.47369 6.19644 3.5689 6.15966 3.65974H10.1457C10.1089 3.5689 10.0801 3.47369 10.0603 3.37489L9.89827 2.56422C9.86427 2.44089 9.7236 2.33356 9.5636 2.33356Z" fill="#F52B2B"/>
</svg>
