<svg width="16" height="16" viewBox="0 0 16 16" fill="none" xmlns="http://www.w3.org/2000/svg">
<path fill-rule="evenodd" clip-rule="evenodd" d="M12.9231 5.81333C13.1984 5.83599 13.4037 6.07666 13.3817 6.35199C13.3777 6.39733 13.0164 10.8713 12.8084 12.748C12.6791 13.9127 11.9097 14.6213 10.7484 14.6427C9.85973 14.658 9.0024 14.6667 8.1644 14.6667C7.26107 14.6667 6.3804 14.6567 5.50907 14.6387C4.3944 14.6167 3.62307 13.894 3.49707 12.7527C3.28707 10.8593 2.92773 6.39666 2.9244 6.35199C2.90173 6.07666 3.10707 5.83533 3.3824 5.81333C3.65373 5.80599 3.89907 5.99666 3.92107 6.27133C3.92319 6.30026 4.07009 8.12268 4.23017 9.9258L4.26233 10.2856C4.34295 11.1819 4.42468 12.0431 4.49107 12.6427C4.5624 13.2913 4.9124 13.626 5.52973 13.6387C7.1964 13.674 8.89707 13.676 10.7304 13.6427C11.3864 13.63 11.7411 13.302 11.8144 12.638C12.0211 10.7753 12.3811 6.31666 12.3851 6.27133C12.4071 5.99666 12.6504 5.80466 12.9231 5.81333ZM9.5636 1.33353C10.1756 1.33353 10.7136 1.74619 10.8716 2.33753L11.0409 3.17819C11.0957 3.45378 11.3375 3.65503 11.6175 3.65945L13.8053 3.65953C14.0813 3.65953 14.3053 3.88353 14.3053 4.15953C14.3053 4.43553 14.0813 4.65953 13.8053 4.65953L11.6371 4.65943C11.6337 4.65949 11.6303 4.65953 11.6269 4.65953L11.6107 4.65886L4.69441 4.65944C4.68904 4.6595 4.68365 4.65953 4.67827 4.65953L4.668 4.65886L2.5 4.65953C2.224 4.65953 2 4.43553 2 4.15953C2 3.88353 2.224 3.65953 2.5 3.65953L4.68733 3.65886L4.75468 3.6546C5.00554 3.62205 5.21402 3.43153 5.26493 3.17819L5.42693 2.36753C5.5916 1.74619 6.1296 1.33353 6.7416 1.33353H9.5636ZM9.5636 2.33353H6.7416C6.5816 2.33353 6.44093 2.44086 6.40027 2.59486L6.24493 3.37486C6.22519 3.47366 6.19644 3.56887 6.15966 3.65971H10.1457C10.1089 3.56887 10.0801 3.47366 10.0603 3.37486L9.89827 2.56419C9.86427 2.44086 9.7236 2.33353 9.5636 2.33353Z" fill="#F52B2B"/>
</svg>
