<svg width="24" height="24" viewBox="0 0 24 24" fill="none" xmlns="http://www.w3.org/2000/svg">
<circle r="11.5" transform="matrix(-1 0 0 1 12 12)" fill="white" stroke="#E4E7EE"/>
<path fill-rule="evenodd" clip-rule="evenodd" d="M12.0826 7.929L18.6976 12.0965C18.8801 12.2115 18.9893 12.4107 18.9893 12.6257C18.9893 12.8398 18.8801 13.0398 18.6976 13.154L12.0826 17.3215C11.9818 17.3857 11.866 17.4182 11.7501 17.4182C11.646 17.4182 11.5426 17.3915 11.4485 17.3398C11.2485 17.2298 11.1251 17.0207 11.1251 16.7932L11.1243 13.25L4.29181 13.2503C3.94681 13.2503 3.66681 12.9703 3.66681 12.6253C3.66681 12.2803 3.94681 12.0003 4.29181 12.0003L11.1243 12L11.1251 8.45817C11.1251 8.22983 11.2485 8.02067 11.4485 7.91067C11.6476 7.8015 11.8918 7.80817 12.0826 7.929ZM12.3751 9.59067L12.375 12.6127C12.3751 12.6169 12.3751 12.6211 12.3751 12.6253L12.3743 12.6375L12.3751 15.6598L17.1918 12.6257L12.3751 9.59067Z" fill="#252525"/>
</svg>
