<svg width="24" height="24" viewBox="0 0 24 24" fill="none" xmlns="http://www.w3.org/2000/svg">
<circle cx="12" cy="12" r="11.5" fill="white" stroke="#E4E7EE"/>
<path fill-rule="evenodd" clip-rule="evenodd" d="M11.9174 7.92905L5.30236 12.0965C5.11986 12.2115 5.01069 12.4107 5.01069 12.6257C5.01069 12.8399 5.11986 13.0399 5.30236 13.154L11.9174 17.3215C12.0182 17.3857 12.134 17.4182 12.2499 17.4182C12.354 17.4182 12.4574 17.3915 12.5515 17.3399C12.7515 17.2299 12.8749 17.0207 12.8749 16.7932L12.8757 13.25L19.7082 13.2504C20.0532 13.2504 20.3332 12.9704 20.3332 12.6254C20.3332 12.2804 20.0532 12.0004 19.7082 12.0004L12.8757 12L12.8749 8.45821C12.8749 8.22988 12.7515 8.02071 12.5515 7.91071C12.3524 7.80155 12.1082 7.80821 11.9174 7.92905ZM11.6249 9.59071L11.625 12.6127C11.6249 12.6169 11.6249 12.6212 11.6249 12.6254L11.6257 12.6375L11.6249 15.6599L6.80819 12.6257L11.6249 9.59071Z" fill="#252525"/>
</svg>
