<svg width="24" height="24" viewBox="0 0 24 24" fill="none" xmlns="http://www.w3.org/2000/svg">
<path d="M13.659 11.998L18.659 6.99801C18.8703 6.77657 18.9865 6.48126 18.9829 6.17522C18.9793 5.86918 18.8561 5.57669 18.6397 5.36027C18.4233 5.14385 18.1308 5.02068 17.8248 5.01708C17.5187 5.01348 17.2234 5.12975 17.002 5.34101L12.002 10.341L7.00198 5.34101C6.89414 5.22798 6.76479 5.13764 6.62153 5.07532C6.47827 5.013 6.32399 4.97995 6.16778 4.97811C6.01156 4.97627 5.85655 5.00569 5.71186 5.06462C5.56718 5.12356 5.43574 5.21083 5.32527 5.3213C5.2148 5.43177 5.12753 5.56321 5.06859 5.7079C5.00965 5.85258 4.98024 6.00759 4.98208 6.16381C4.98391 6.32003 5.01696 6.4743 5.07929 6.61756C5.14161 6.76082 5.23194 6.89017 5.34498 6.99801L10.345 11.998L5.34498 16.998C5.13371 17.2195 5.01745 17.5148 5.02105 17.8208C5.02465 18.1268 5.14782 18.4193 5.36424 18.6358C5.58066 18.8522 5.87315 18.9753 6.17919 18.9789C6.48523 18.9825 6.78053 18.8663 7.00198 18.655L12.002 13.655L17.002 18.655C17.2234 18.8663 17.5187 18.9825 17.8248 18.9789C18.1308 18.9753 18.4233 18.8522 18.6397 18.6358C18.8561 18.4193 18.9793 18.1268 18.9829 17.8208C18.9865 17.5148 18.8703 17.2195 18.659 16.998L13.659 11.998Z" fill="#666666"/>
</svg>
