<svg width="24" height="24" viewBox="0 0 24 24" fill="none" xmlns="http://www.w3.org/2000/svg">
<circle cx="12" cy="12" r="11.5" fill="white" stroke="#E4E7EE"/>
<path fill-rule="evenodd" clip-rule="evenodd" d="M11.9173 7.92905L5.3023 12.0965C5.1198 12.2115 5.01063 12.4107 5.01063 12.6257C5.01063 12.8399 5.1198 13.0399 5.3023 13.154L11.9173 17.3215C12.0181 17.3857 12.134 17.4182 12.2498 17.4182C12.354 17.4182 12.4573 17.3915 12.5515 17.3399C12.7515 17.2299 12.8748 17.0207 12.8748 16.7932L12.8756 13.25L19.7081 13.2504C20.0531 13.2504 20.3331 12.9704 20.3331 12.6254C20.3331 12.2804 20.0531 12.0004 19.7081 12.0004L12.8756 12L12.8748 8.45821C12.8748 8.22988 12.7515 8.02071 12.5515 7.91071C12.3523 7.80155 12.1081 7.80821 11.9173 7.92905ZM11.6248 9.59071L11.6249 12.6127C11.6248 12.6169 11.6248 12.6212 11.6248 12.6254L11.6256 12.6375L11.6248 15.6599L6.80813 12.6257L11.6248 9.59071Z" fill="#252525"/>
</svg>
