<svg width="24" height="24" viewBox="0 0 24 24" fill="none" xmlns="http://www.w3.org/2000/svg">
<circle cx="12" cy="12" r="11.5" fill="white" stroke="#E4E7EE"/>
<path fill-rule="evenodd" clip-rule="evenodd" d="M11.9172 7.92898L5.30217 12.0965C5.11967 12.2115 5.01051 12.4107 5.01051 12.6257C5.01051 12.8398 5.11967 13.0398 5.30217 13.154L11.9172 17.3215C12.018 17.3857 12.1338 17.4182 12.2497 17.4182C12.3538 17.4182 12.4572 17.3915 12.5513 17.3398C12.7513 17.2298 12.8747 17.0207 12.8747 16.7932L12.8755 13.25L19.708 13.2503C20.053 13.2503 20.333 12.9703 20.333 12.6253C20.333 12.2803 20.053 12.0003 19.708 12.0003L12.8755 12L12.8747 8.45815C12.8747 8.22982 12.7513 8.02065 12.5513 7.91065C12.3522 7.80148 12.108 7.80815 11.9172 7.92898ZM11.6247 9.59065L11.6248 12.6127C11.6247 12.6169 11.6247 12.6211 11.6247 12.6253L11.6255 12.6375L11.6247 15.6598L6.80801 12.6257L11.6247 9.59065Z" fill="#252525"/>
</svg>
