<svg width="24" height="24" viewBox="0 0 24 24" fill="none" xmlns="http://www.w3.org/2000/svg">
<circle cx="12" cy="12" r="11.5" fill="white" stroke="#E4E7EE"/>
<path fill-rule="evenodd" clip-rule="evenodd" d="M11.9174 7.92898L5.30236 12.0965C5.11986 12.2115 5.01069 12.4107 5.01069 12.6257C5.01069 12.8398 5.11986 13.0398 5.30236 13.154L11.9174 17.3215C12.0182 17.3857 12.134 17.4182 12.2499 17.4182C12.354 17.4182 12.4574 17.3915 12.5515 17.3398C12.7515 17.2298 12.8749 17.0207 12.8749 16.7932L12.8757 13.25L19.7082 13.2503C20.0532 13.2503 20.3332 12.9703 20.3332 12.6253C20.3332 12.2803 20.0532 12.0003 19.7082 12.0003L12.8757 12L12.8749 8.45815C12.8749 8.22982 12.7515 8.02065 12.5515 7.91065C12.3524 7.80148 12.1082 7.80815 11.9174 7.92898ZM11.6249 9.59065L11.625 12.6127C11.6249 12.6169 11.6249 12.6211 11.6249 12.6253L11.6257 12.6375L11.6249 15.6598L6.80819 12.6257L11.6249 9.59065Z" fill="#252525"/>
</svg>
