<svg width="24" height="24" viewBox="0 0 24 24" fill="none" xmlns="http://www.w3.org/2000/svg">
<circle r="11.5" transform="matrix(-1 0 0 1 12 12)" fill="white" stroke="#E4E7EE"/>
<path fill-rule="evenodd" clip-rule="evenodd" d="M12.0827 7.92905L18.6977 12.0965C18.8802 12.2115 18.9894 12.4107 18.9894 12.6257C18.9894 12.8399 18.8802 13.0399 18.6977 13.154L12.0827 17.3215C11.9819 17.3857 11.866 17.4182 11.7502 17.4182C11.646 17.4182 11.5427 17.3915 11.4485 17.3399C11.2485 17.2299 11.1252 17.0207 11.1252 16.7932L11.1244 13.25L4.29186 13.2504C3.94686 13.2504 3.66686 12.9704 3.66686 12.6254C3.66686 12.2804 3.94686 12.0004 4.29186 12.0004L11.1244 12L11.1252 8.45821C11.1252 8.22988 11.2485 8.02071 11.4485 7.91071C11.6477 7.80155 11.8919 7.80821 12.0827 7.92905ZM12.3752 9.59071L12.3751 12.6127C12.3752 12.6169 12.3752 12.6212 12.3752 12.6254L12.3744 12.6375L12.3752 15.6599L17.1919 12.6257L12.3752 9.59071Z" fill="#252525"/>
</svg>
