<svg width="24" height="24" viewBox="0 0 24 24" fill="none" xmlns="http://www.w3.org/2000/svg">
<circle r="11.5" transform="matrix(-1 0 0 1 12 12)" fill="white" stroke="#E4E7EE"/>
<path fill-rule="evenodd" clip-rule="evenodd" d="M12.0827 7.929L18.6977 12.0965C18.8802 12.2115 18.9894 12.4107 18.9894 12.6257C18.9894 12.8398 18.8802 13.0398 18.6977 13.154L12.0827 17.3215C11.9819 17.3857 11.866 17.4182 11.7502 17.4182C11.646 17.4182 11.5427 17.3915 11.4485 17.3398C11.2485 17.2298 11.1252 17.0207 11.1252 16.7932L11.1244 13.25L4.29187 13.2503C3.94687 13.2503 3.66687 12.9703 3.66687 12.6253C3.66687 12.2803 3.94687 12.0003 4.29187 12.0003L11.1244 12L11.1252 8.45817C11.1252 8.22983 11.2485 8.02067 11.4485 7.91067C11.6477 7.8015 11.8919 7.80817 12.0827 7.929ZM12.3752 9.59067L12.3751 12.6127C12.3752 12.6169 12.3752 12.6211 12.3752 12.6253L12.3744 12.6375L12.3752 15.6598L17.1919 12.6257L12.3752 9.59067Z" fill="#252525"/>
</svg>
