<svg width="24" height="24" viewBox="0 0 24 24" fill="none" xmlns="http://www.w3.org/2000/svg">
<circle r="11.5" transform="matrix(-1 0 0 1 12 12)" fill="white" stroke="#E4E7EE"/>
<path fill-rule="evenodd" clip-rule="evenodd" d="M12.0828 7.92898L18.6978 12.0965C18.8803 12.2115 18.9895 12.4107 18.9895 12.6257C18.9895 12.8398 18.8803 13.0398 18.6978 13.154L12.0828 17.3215C11.982 17.3857 11.8662 17.4182 11.7503 17.4182C11.6462 17.4182 11.5428 17.3915 11.4487 17.3398C11.2487 17.2298 11.1253 17.0207 11.1253 16.7932L11.1245 13.25L4.29199 13.2503C3.94699 13.2503 3.66699 12.9703 3.66699 12.6253C3.66699 12.2803 3.94699 12.0003 4.29199 12.0003L11.1245 12L11.1253 8.45815C11.1253 8.22982 11.2487 8.02065 11.4487 7.91065C11.6478 7.80148 11.892 7.80815 12.0828 7.92898ZM12.3753 9.59065L12.3752 12.6127C12.3753 12.6169 12.3753 12.6211 12.3753 12.6253L12.3745 12.6375L12.3753 15.6598L17.192 12.6257L12.3753 9.59065Z" fill="#252525"/>
</svg>
