<svg width="16" height="11" viewBox="0 0 16 11" fill="none" xmlns="http://www.w3.org/2000/svg">
<path fill-rule="evenodd" clip-rule="evenodd" d="M9.0827 0.929045L15.6977 5.09655C15.8802 5.21155 15.9894 5.41071 15.9894 5.62571C15.9894 5.83988 15.8802 6.03988 15.6977 6.15405L9.0827 10.3215C8.98187 10.3857 8.86604 10.4182 8.7502 10.4182C8.64604 10.4182 8.5427 10.3915 8.44854 10.3399C8.24854 10.2299 8.1252 10.0207 8.1252 9.79321L8.12437 6.25004L1.29187 6.25038C0.94687 6.25038 0.66687 5.97038 0.66687 5.62538C0.66687 5.28038 0.94687 5.00038 1.29187 5.00038L8.12437 5.00004L8.1252 1.45821C8.1252 1.22988 8.24854 1.02071 8.44854 0.910712C8.6477 0.801545 8.89187 0.808212 9.0827 0.929045ZM9.3752 2.59071L9.37508 5.61273C9.37516 5.61693 9.3752 5.62115 9.3752 5.62538L9.37437 5.63754L9.3752 8.65988L14.1919 5.62571L9.3752 2.59071Z" fill="#252525"/>
</svg>
