<svg width="16" height="11" viewBox="0 0 16 11" fill="none" xmlns="http://www.w3.org/2000/svg">
<path fill-rule="evenodd" clip-rule="evenodd" d="M9.08279 0.929045L15.6978 5.09655C15.8803 5.21155 15.9895 5.41071 15.9895 5.62571C15.9895 5.83988 15.8803 6.03988 15.6978 6.15405L9.08279 10.3215C8.98196 10.3857 8.86613 10.4182 8.75029 10.4182C8.64613 10.4182 8.54279 10.3915 8.44863 10.3399C8.24863 10.2299 8.12529 10.0207 8.12529 9.79321L8.12446 6.25004L1.29196 6.25038C0.946962 6.25038 0.666962 5.97038 0.666962 5.62538C0.666962 5.28038 0.946962 5.00038 1.29196 5.00038L8.12446 5.00004L8.12529 1.45821C8.12529 1.22988 8.24863 1.02071 8.44863 0.910712C8.64779 0.801545 8.89196 0.808212 9.08279 0.929045ZM9.37529 2.59071L9.37517 5.61273C9.37525 5.61693 9.37529 5.62115 9.37529 5.62538L9.37446 5.63754L9.37529 8.65988L14.192 5.62571L9.37529 2.59071Z" fill="#252525"/>
</svg>
